<svg xmlns="http://www.w3.org/2000/svg" xmlns:xlink="http://www.w3.org/1999/xlink" width="1024" height="231" viewBox="0 0 1024 231">
  <defs>
    <clipPath id="clip-stega_full_length">
      <rect width="1024" height="231"/>
    </clipPath>
  </defs>
  <g id="stega_full_length" data-name="stega full length" clip-path="url(#clip-stega_full_length)">
    <rect width="1024" height="231" fill="#fff"/>
    <g id="Rectangle_22" data-name="Rectangle 22" transform="translate(29 -69)" fill="none" stroke="#fff" stroke-width="10">
      <rect width="973" height="443" stroke="none"/>
      <rect x="5" y="5" width="963" height="433" fill="none"/>
    </g>
    <path id="Path_18" data-name="Path 18" d="M207.258,264.153q0-14.3-10.052-22.041t-36.263-15.637q-26.211-7.893-41.7-17.573-29.636-18.616-29.636-48.55,0-26.211,21.371-43.188t55.475-16.978q22.637,0,40.359,8.34a66.242,66.242,0,0,1,27.849,23.754,60.925,60.925,0,0,1,10.127,34.178H207.258q0-16.978-10.648-26.583t-30.455-9.606q-18.467,0-28.668,7.893t-10.2,22.041q0,11.914,11.021,19.882t36.338,15.488Q199.96,203.093,215.3,212.7t22.488,22.041q7.148,12.435,7.148,29.115,0,27.1-20.775,43.114t-56.368,16.01a105.925,105.925,0,0,1-43.263-8.712q-19.733-8.712-30.679-24.052T82.9,254.473h37.678q0,18.467,12.212,28.594t35,10.127q19.658,0,29.562-7.968T207.258,264.153Zm227.41-130.608H367.055V320h-37.38V133.545H262.658V103.164H434.667ZM589.848,223.2H500.791v66.719h104.1V320H463.112V103.164H603.847v30.381H500.791v59.868h89.058ZM801.77,291.853Q790,307.192,769.155,315.085T721.8,322.979q-27.253,0-48.252-12.361t-32.391-35.37q-11.393-23.009-11.84-53.688V204.583q0-49.146,23.53-76.771t65.676-27.626q36.189,0,57.485,17.946t25.615,51.6H764.687q-6.255-39.167-45.422-39.167-25.317,0-38.5,18.227t-13.627,53.49v16.663q0,35.114,14.818,54.531T723.137,292.9q28.892,0,41.1-13.105V237.346H719.563V208.752H801.77Zm162.776-22.339H880.551L862.978,320H823.811L905.72,103.164h33.806L1021.584,320H982.268Zm-73.42-30.381h62.847l-31.423-89.951Z" transform="translate(-36 -95)"/>
  </g>
</svg>
