<svg xmlns="http://www.w3.org/2000/svg" xmlns:xlink="http://www.w3.org/1999/xlink" width="55" height="46" viewBox="0 0 55 46">
  <defs>
    <clipPath id="clip-Explore">
      <rect width="55" height="46"/>
    </clipPath>
  </defs>
  <g id="Explore" clip-path="url(#clip-Explore)">
    <rect width="55" height="46" fill="rgba(255,255,255,0)"/>
    <path id="Path_51" data-name="Path 51" d="M9.546,13H5.093V4.6H9.358v.891H6.077V8.283H9.112v.885H6.077v2.941H9.546Zm5.871-6L13.4,10.035,15.382,13H14.263l-1.178-1.945q-.111-.182-.264-.457H12.8q-.029.053-.275.457L11.321,13H10.214l2.045-2.941L10.3,7h1.119l1.16,2.051q.129.229.252.469h.023L14.356,7Zm2.109,5.133H17.5V15.76h-.961V7H17.5V8.055h.023a2.272,2.272,0,0,1,2.074-1.2,2.2,2.2,0,0,1,1.811.806,3.337,3.337,0,0,1,.65,2.159,3.719,3.719,0,0,1-.732,2.411,2.439,2.439,0,0,1-2,.905A2.007,2.007,0,0,1,17.526,12.133ZM17.5,9.713v.838a1.784,1.784,0,0,0,.483,1.263,1.725,1.725,0,0,0,2.6-.149,3.064,3.064,0,0,0,.5-1.857,2.419,2.419,0,0,0-.463-1.57,1.532,1.532,0,0,0-1.254-.568,1.7,1.7,0,0,0-1.348.583A2.141,2.141,0,0,0,17.5,9.713ZM24.558,13H23.6V4.117h.961Zm4.453.141a2.783,2.783,0,0,1-2.124-.841,3.114,3.114,0,0,1-.794-2.229,3.244,3.244,0,0,1,.826-2.361,2.97,2.97,0,0,1,2.232-.85,2.691,2.691,0,0,1,2.095.826A3.276,3.276,0,0,1,32,9.977a3.223,3.223,0,0,1-.812,2.3A2.844,2.844,0,0,1,29.011,13.141Zm.07-5.473a1.828,1.828,0,0,0-1.465.63,2.587,2.587,0,0,0-.539,1.737,2.447,2.447,0,0,0,.545,1.682,1.852,1.852,0,0,0,1.459.615,1.757,1.757,0,0,0,1.433-.6,2.619,2.619,0,0,0,.5-1.717,2.664,2.664,0,0,0-.5-1.734A1.749,1.749,0,0,0,29.081,7.668Zm7.582.3a1.175,1.175,0,0,0-.727-.193,1.226,1.226,0,0,0-1.028.58A2.682,2.682,0,0,0,34.5,9.941V13h-.961V7H34.5V8.236h.023a2.1,2.1,0,0,1,.627-.987,1.43,1.43,0,0,1,.943-.354,1.569,1.569,0,0,1,.574.082Zm5.865,2.268H38.292a2.244,2.244,0,0,0,.539,1.547,1.858,1.858,0,0,0,1.418.545,2.948,2.948,0,0,0,1.863-.668v.9a3.482,3.482,0,0,1-2.092.574,2.536,2.536,0,0,1-2-.817,3.346,3.346,0,0,1-.727-2.3,3.281,3.281,0,0,1,.794-2.282,2.546,2.546,0,0,1,1.972-.882,2.256,2.256,0,0,1,1.822.762,3.176,3.176,0,0,1,.645,2.115Zm-.984-.814a1.955,1.955,0,0,0-.4-1.295,1.368,1.368,0,0,0-1.1-.463,1.552,1.552,0,0,0-1.154.486A2.207,2.207,0,0,0,38.3,9.426Z" transform="translate(4 27)"/>
    <g id="explore-24px" transform="translate(16 4)">
      <path id="Path_63" data-name="Path 63" d="M0,0H24V24H0Z" fill="none"/>
      <path id="Path_64" data-name="Path 64" d="M12,10.9A1.1,1.1,0,1,0,13.1,12,1.1,1.1,0,0,0,12,10.9ZM12,2A10,10,0,1,0,22,12,10,10,0,0,0,12,2Zm2.19,12.19L6,18,9.81,9.81,18,6Z"/>
    </g>
  </g>
</svg>
