<svg xmlns="http://www.w3.org/2000/svg" xmlns:xlink="http://www.w3.org/1999/xlink" width="55" height="46" viewBox="0 0 55 46">
  <defs>
    <clipPath id="clip-Explore">
      <rect width="55" height="46"/>
    </clipPath>
  </defs>
  <g id="Explore" clip-path="url(#clip-Explore)">
    <rect width="55" height="46" fill="rgba(255,255,255,0)"/>
    <text id="Explore-2" data-name="Explore" transform="translate(4 27)" font-size="12" font-family="SegoeUI, Segoe UI"><tspan x="3.991" y="13">Explore</tspan></text>
    <g id="explore-24px" transform="translate(16 4)">
      <path id="Path_37" data-name="Path 37" d="M0,0H24V24H0Z" fill="none"/>
      <path id="Path_38" data-name="Path 38" d="M12,2A10,10,0,1,0,22,12,10,10,0,0,0,12,2Zm0,18a8,8,0,1,1,8-8A8.011,8.011,0,0,1,12,20ZM6.5,17.5l7.51-3.49L17.5,6.5,9.99,9.99ZM12,10.9A1.1,1.1,0,1,1,10.9,12,1.1,1.1,0,0,1,12,10.9Z"/>
    </g>
  </g>
</svg>
