<svg xmlns="http://www.w3.org/2000/svg" xmlns:xlink="http://www.w3.org/1999/xlink" width="107" height="122" viewBox="0 0 107 122">
  <defs>
    <clipPath id="clip-NOTICE">
      <rect width="107" height="122"/>
    </clipPath>
  </defs>
  <g id="NOTICE" clip-path="url(#clip-NOTICE)">
    <rect width="107" height="122" fill="#fff"/>
    <path id="Path_23" data-name="Path 23" d="M9,0H98a9,9,0,0,1,9,9V113a9,9,0,0,1-9,9H9a9,9,0,0,1-9-9V9A9,9,0,0,1,9,0Z" fill="#fff"/>
    <path id="Path_24" data-name="Path 24" d="M6.336,14.8H3.72V20H1.373V6.492h4.75A5.525,5.525,0,0,1,9.732,7.541,3.712,3.712,0,0,1,11,10.578a3.8,3.8,0,0,1-.654,2.27,4.162,4.162,0,0,1-1.823,1.407L11.56,19.88V20H9.045ZM3.72,12.912H6.132a2.683,2.683,0,0,0,1.855-.6,2.087,2.087,0,0,0,.668-1.637A2.221,2.221,0,0,0,8.039,9,2.621,2.621,0,0,0,6.2,8.385H3.72Zm20.29.687a8.288,8.288,0,0,1-.687,3.484,5.191,5.191,0,0,1-1.962,2.3,5.4,5.4,0,0,1-2.936.8,5.41,5.41,0,0,1-2.927-.8A5.271,5.271,0,0,1,13.512,17.1a8.028,8.028,0,0,1-.71-3.423v-.761a8.216,8.216,0,0,1,.7-3.488,5.264,5.264,0,0,1,1.976-2.315,5.38,5.38,0,0,1,2.927-.8,5.427,5.427,0,0,1,2.927.793A5.2,5.2,0,0,1,23.3,9.382a8.2,8.2,0,0,1,.705,3.465Zm-2.347-.705a5.9,5.9,0,0,0-.849-3.442,2.777,2.777,0,0,0-2.407-1.2,2.769,2.769,0,0,0-2.38,1.192,5.791,5.791,0,0,0-.877,3.372V13.6a5.86,5.86,0,0,0,.867,3.442,2.793,2.793,0,0,0,2.407,1.215,2.76,2.76,0,0,0,2.4-1.187,5.986,5.986,0,0,0,.84-3.47ZM35.319,8.385H31.107V20H28.778V8.385H24.6V6.492H35.319Zm8.22,8.47H38.306L37.211,20h-2.44l5.1-13.508H41.98L47.092,20H44.643Zm-4.574-1.893H42.88l-1.958-5.6Zm18.3-6.578H53.057V20H50.729V8.385H46.554V6.492H57.269Zm9.667,5.585H61.388v4.156h6.485V20H59.041V6.492h8.767V8.385h-6.42v3.729h5.548ZM5.78,37.894l3.108-6.4h2.6L6.958,40.027V45H4.6V40.027L.065,31.492H2.672Zm17.683.705a8.288,8.288,0,0,1-.687,3.484,5.191,5.191,0,0,1-1.962,2.3,5.4,5.4,0,0,1-2.936.8,5.41,5.41,0,0,1-2.927-.8A5.271,5.271,0,0,1,12.965,42.1a8.028,8.028,0,0,1-.71-3.423v-.761a8.216,8.216,0,0,1,.7-3.488,5.264,5.264,0,0,1,1.976-2.315,5.38,5.38,0,0,1,2.927-.8,5.427,5.427,0,0,1,2.927.793,5.2,5.2,0,0,1,1.971,2.282,8.2,8.2,0,0,1,.705,3.465Zm-2.347-.705a5.9,5.9,0,0,0-.849-3.442,2.777,2.777,0,0,0-2.407-1.2,2.769,2.769,0,0,0-2.38,1.192,5.791,5.791,0,0,0-.877,3.372V38.6a5.86,5.86,0,0,0,.867,3.442,2.793,2.793,0,0,0,2.407,1.215,2.76,2.76,0,0,0,2.4-1.187,5.986,5.986,0,0,0,.84-3.47Zm14.565-6.4v9.027A4.387,4.387,0,0,1,34.3,43.928a5.233,5.233,0,0,1-3.669,1.257,5.271,5.271,0,0,1-3.683-1.239,4.408,4.408,0,0,1-1.364-3.437V31.492h2.338v9.036a2.87,2.87,0,0,0,.687,2.069,2.678,2.678,0,0,0,2.022.714q2.709,0,2.709-2.857V31.492ZM43.149,39.8H40.533V45H38.186V31.492h4.75a5.525,5.525,0,0,1,3.609,1.049,3.712,3.712,0,0,1,1.271,3.036,3.8,3.8,0,0,1-.654,2.27,4.162,4.162,0,0,1-1.823,1.407l3.034,5.625V45H45.858Zm-2.616-1.893h2.412a2.683,2.683,0,0,0,1.855-.6,2.087,2.087,0,0,0,.668-1.637A2.221,2.221,0,0,0,44.851,34a2.621,2.621,0,0,0-1.842-.612H40.533ZM1.373,70V56.492H5.362a6.257,6.257,0,0,1,3.177.8,5.44,5.44,0,0,1,2.148,2.264,7.186,7.186,0,0,1,.761,3.358v.677a7.156,7.156,0,0,1-.765,3.377A5.375,5.375,0,0,1,8.5,69.211,6.547,6.547,0,0,1,5.26,70ZM3.72,58.385v9.741H5.251a3.525,3.525,0,0,0,2.834-1.155,5.031,5.031,0,0,0,1.007-3.317V62.9a5.163,5.163,0,0,0-.956-3.358,3.388,3.388,0,0,0-2.774-1.16ZM21.681,63.97H16.133v4.156h6.485V70H13.786V56.492h8.767v1.893h-6.42v3.729h5.548Zm7.607,3.089,3.433-10.567H35.3L30.439,70H28.166L23.323,56.492h2.57ZM39.3,70H36.961V56.492H39.3Zm13.192-4.4a4.877,4.877,0,0,1-1.6,3.372,5.44,5.44,0,0,1-3.7,1.211,5.267,5.267,0,0,1-2.844-.765,5.024,5.024,0,0,1-1.9-2.176,7.851,7.851,0,0,1-.7-3.275V62.708a7.908,7.908,0,0,1,.677-3.368A5.1,5.1,0,0,1,44.378,57.1a5.422,5.422,0,0,1,2.927-.789,5.221,5.221,0,0,1,3.6,1.211,5.059,5.059,0,0,1,1.586,3.428H50.153a3.337,3.337,0,0,0-.849-2.1,2.806,2.806,0,0,0-2-.645,2.741,2.741,0,0,0-2.352,1.119,5.592,5.592,0,0,0-.84,3.283v1.2a5.933,5.933,0,0,0,.784,3.343,2.6,2.6,0,0,0,2.3,1.151,3.034,3.034,0,0,0,2.078-.622,3.241,3.241,0,0,0,.881-2.069Zm9.992-1.633H56.935v4.156H63.42V70H54.588V56.492h8.767v1.893h-6.42v3.729h5.548Zm5.019,2.06H65.563l-.213-9.537h2.375Zm-2.217,2.908a1.19,1.19,0,0,1,.343-.873,1.44,1.44,0,0,1,1.874,0,1.19,1.19,0,0,1,.343.873,1.169,1.169,0,0,1-.334.85,1.48,1.48,0,0,1-1.893,0A1.169,1.169,0,0,1,65.285,68.938Z" transform="translate(13 35)"/>
    <path id="Path_25" data-name="Path 25" d="M2.837,15H1.114V5.047H2.837ZM7.205,5.047l2.871,7.629L12.94,5.047h2.235V15H13.453V11.719l.171-4.389L10.685,15H9.447L6.515,7.337l.171,4.382V15H4.963V5.047Zm11.744,6.262V15H17.22V5.047h3.808a3.85,3.85,0,0,1,2.649.869,2.922,2.922,0,0,1,.981,2.3,2.825,2.825,0,0,1-.96,2.279,4.037,4.037,0,0,1-2.69.814Zm0-1.395h2.078a2.047,2.047,0,0,0,1.408-.434,1.6,1.6,0,0,0,.485-1.254,1.721,1.721,0,0,0-.492-1.289,1.9,1.9,0,0,0-1.354-.5H18.949Zm15.162.369a6.107,6.107,0,0,1-.506,2.567,3.825,3.825,0,0,1-1.446,1.7,4.241,4.241,0,0,1-4.32,0,3.884,3.884,0,0,1-1.463-1.685,5.915,5.915,0,0,1-.523-2.522V9.777a6.054,6.054,0,0,1,.516-2.57A3.879,3.879,0,0,1,27.826,5.5a4.25,4.25,0,0,1,4.313-.007,3.83,3.83,0,0,1,1.453,1.682,6.041,6.041,0,0,1,.52,2.553Zm-1.729-.52a4.351,4.351,0,0,0-.625-2.536,2.207,2.207,0,0,0-3.527,0,4.267,4.267,0,0,0-.646,2.485v.574a4.318,4.318,0,0,0,.639,2.536,2.058,2.058,0,0,0,1.774.9,2.034,2.034,0,0,0,1.767-.875,4.411,4.411,0,0,0,.619-2.557Zm7.109,1.408H37.563V15H35.834V5.047h3.5a4.071,4.071,0,0,1,2.659.773,2.735,2.735,0,0,1,.937,2.237,2.8,2.8,0,0,1-.482,1.673A3.067,3.067,0,0,1,41.1,10.767l2.235,4.145V15H41.487ZM37.563,9.777h1.777a1.977,1.977,0,0,0,1.367-.441A1.538,1.538,0,0,0,41.2,8.13a1.637,1.637,0,0,0-.455-1.237,1.931,1.931,0,0,0-1.357-.451H37.563ZM51.42,6.441h-3.1V15H46.6V6.441H43.524V5.047h7.9Zm6.057,6.241H53.621L52.814,15h-1.8l3.76-9.953h1.552L60.095,15h-1.8Zm-3.37-1.395h2.885L55.549,7.159ZM69.118,15H67.389L62.952,7.938V15H61.223V5.047h1.729l4.45,7.089V5.047h1.716Zm9.235-8.559h-3.1V15H73.534V6.441H70.458V5.047h7.9Zm2.905,5.633H79.83l-.157-7.027h1.75Zm-1.634,2.143a.877.877,0,0,1,.253-.644,1.061,1.061,0,0,1,1.381,0,.877.877,0,0,1,.253.644.861.861,0,0,1-.246.626,1.091,1.091,0,0,1-1.395,0A.861.861,0,0,1,79.625,14.217Z" transform="translate(13 15)" fill="#ff4a4a"/>
  </g>
</svg>
