<svg xmlns="http://www.w3.org/2000/svg" xmlns:xlink="http://www.w3.org/1999/xlink" width="55" height="46" viewBox="0 0 55 46">
  <defs>
    <clipPath id="clip-Play">
      <rect width="55" height="46"/>
    </clipPath>
  </defs>
  <g id="Play" clip-path="url(#clip-Play)">
    <rect width="55" height="46" fill="rgba(255,255,255,0)"/>
    <g id="games-24px" transform="translate(16 4)">
      <path id="Path_29" data-name="Path 29" d="M0,0H24V24H0Z" fill="none"/>
      <path id="Path_30" data-name="Path 30" d="M13,4V6.67l-1,1-1-1V4h2m7,7v2H17.33l-1-1,1-1H20M6.67,11l1,1-1,1H4V11H6.67M12,16.33l1,1V20H11V17.33l1-1M15,2H9V7.5l3,3,3-3Zm7,7H16.5l-3,3,3,3H22ZM7.5,9H2v6H7.5l3-3ZM12,13.5l-3,3V22h6V16.5Z"/>
    </g>
    <path id="Path_47" data-name="Path 47" d="M12.316,9.824V13h-.984V4.6h2.309a3.047,3.047,0,0,1,2.089.656,2.343,2.343,0,0,1,.741,1.852,2.547,2.547,0,0,1-.823,1.957,3.145,3.145,0,0,1-2.224.762Zm0-4.336V8.934h1.031A2.306,2.306,0,0,0,14.9,8.468a1.649,1.649,0,0,0,.536-1.315q0-1.664-1.969-1.664ZM18.885,13h-.961V4.117h.961Zm6.24,0h-.961v-.937h-.023a2.012,2.012,0,0,1-1.846,1.078,1.973,1.973,0,0,1-1.4-.475,1.644,1.644,0,0,1-.507-1.26q0-1.682,1.98-1.957l1.8-.252q0-1.529-1.236-1.529a2.954,2.954,0,0,0-1.957.738V7.422a3.718,3.718,0,0,1,2.039-.562q2.115,0,2.115,2.238Zm-.961-3.035-1.447.2a2.35,2.35,0,0,0-1.008.331.955.955,0,0,0-.34.841.916.916,0,0,0,.313.718,1.211,1.211,0,0,0,.835.278,1.542,1.542,0,0,0,1.181-.5,1.79,1.79,0,0,0,.466-1.269ZM31.711,7l-2.76,6.961q-.738,1.863-2.074,1.863a2.2,2.2,0,0,1-.627-.076v-.861a1.781,1.781,0,0,0,.568.105,1.178,1.178,0,0,0,1.09-.867l.48-1.137L26.045,7h1.066l1.623,4.617q.029.088.123.457h.035q.029-.141.117-.445L30.715,7Z" transform="translate(7 26)"/>
  </g>
</svg>
