<svg xmlns="http://www.w3.org/2000/svg" xmlns:xlink="http://www.w3.org/1999/xlink" width="55" height="46" viewBox="0 0 55 46">
  <defs>
    <clipPath id="clip-Profile">
      <rect width="55" height="46"/>
    </clipPath>
  </defs>
  <g id="Profile" clip-path="url(#clip-Profile)">
    <rect width="55" height="46" fill="rgba(255,255,255,0)"/>
    <path id="Path_50" data-name="Path 50" d="M8.7,9.824V13H7.718V4.6h2.309a3.047,3.047,0,0,1,2.089.656,2.343,2.343,0,0,1,.741,1.852,2.547,2.547,0,0,1-.823,1.957,3.145,3.145,0,0,1-2.224.762Zm0-4.336V8.934H9.733a2.306,2.306,0,0,0,1.556-.466,1.649,1.649,0,0,0,.536-1.315q0-1.664-1.969-1.664Zm8.736,2.484a1.175,1.175,0,0,0-.727-.193,1.226,1.226,0,0,0-1.028.58,2.682,2.682,0,0,0-.413,1.582V13H14.31V7h.961V8.236h.023a2.1,2.1,0,0,1,.627-.987,1.43,1.43,0,0,1,.943-.354,1.569,1.569,0,0,1,.574.082Zm3.551,5.168a2.783,2.783,0,0,1-2.124-.841,3.114,3.114,0,0,1-.794-2.229A3.244,3.244,0,0,1,18.9,7.709a2.97,2.97,0,0,1,2.232-.85,2.691,2.691,0,0,1,2.095.826,3.276,3.276,0,0,1,.753,2.291,3.223,3.223,0,0,1-.812,2.3A2.844,2.844,0,0,1,20.989,13.141Zm.07-5.473a1.828,1.828,0,0,0-1.465.63,2.587,2.587,0,0,0-.539,1.737,2.447,2.447,0,0,0,.545,1.682,1.852,1.852,0,0,0,1.459.615,1.757,1.757,0,0,0,1.433-.6,2.619,2.619,0,0,0,.5-1.717,2.664,2.664,0,0,0-.5-1.734A1.749,1.749,0,0,0,21.06,7.668Zm7.418-2.707a1.28,1.28,0,0,0-.639-.158q-1.008,0-1.008,1.271V7h1.406v.82H26.831V13h-.955V7.82H24.851V7h1.025V6.027a2.021,2.021,0,0,1,.545-1.491,1.84,1.84,0,0,1,1.359-.548,1.883,1.883,0,0,1,.7.105Zm1.283.516a.609.609,0,0,1-.439-.176.593.593,0,0,1-.182-.445.615.615,0,0,1,.621-.627.621.621,0,0,1,.448.179.626.626,0,0,1,0,.888A.615.615,0,0,1,29.761,5.477ZM30.229,13h-.961V7h.961Zm2.906,0h-.961V4.117h.961ZM39.9,10.24H35.667a2.244,2.244,0,0,0,.539,1.547,1.858,1.858,0,0,0,1.418.545,2.948,2.948,0,0,0,1.863-.668v.9a3.482,3.482,0,0,1-2.092.574,2.536,2.536,0,0,1-2-.817,3.346,3.346,0,0,1-.727-2.3,3.281,3.281,0,0,1,.794-2.282,2.546,2.546,0,0,1,1.972-.882,2.256,2.256,0,0,1,1.822.762A3.176,3.176,0,0,1,39.9,9.736Zm-.984-.814a1.955,1.955,0,0,0-.4-1.295,1.368,1.368,0,0,0-1.1-.463,1.552,1.552,0,0,0-1.154.486,2.207,2.207,0,0,0-.586,1.271Z" transform="translate(4 27)"/>
    <g id="person-24px" transform="translate(14 2)">
      <path id="Path_35" data-name="Path 35" d="M0,0H26V26H0Z" fill="none"/>
      <path id="Path_36" data-name="Path 36" d="M12.667,6.167A2.167,2.167,0,1,1,10.5,8.333a2.173,2.173,0,0,1,2.167-2.167m0,10.833c2.925,0,6.283,1.4,6.5,2.167h-13c.249-.78,3.586-2.167,6.5-2.167m0-13A4.333,4.333,0,1,0,17,8.333,4.332,4.332,0,0,0,12.667,4Zm0,10.833C9.774,14.833,4,16.285,4,19.167v2.167H21.333V19.167C21.333,16.285,15.559,14.833,12.667,14.833Z" transform="translate(0.333 0.333)"/>
    </g>
  </g>
</svg>
