<svg xmlns="http://www.w3.org/2000/svg" xmlns:xlink="http://www.w3.org/1999/xlink" width="55" height="46" viewBox="0 0 55 46">
  <defs>
    <clipPath id="clip-Settings">
      <rect width="55" height="46"/>
    </clipPath>
  </defs>
  <g id="Settings" clip-path="url(#clip-Settings)">
    <rect width="55" height="46" fill="rgba(255,255,255,0)"/>
    <path id="Path_48" data-name="Path 48" d="M2.89,12.66V11.5a2.253,2.253,0,0,0,.478.316,3.869,3.869,0,0,0,.586.237,4.664,4.664,0,0,0,.618.149,3.447,3.447,0,0,0,.574.053A2.249,2.249,0,0,0,6.5,11.919a1.264,1.264,0,0,0,.3-1.562,1.683,1.683,0,0,0-.413-.46,4.1,4.1,0,0,0-.624-.4q-.36-.19-.776-.4-.439-.223-.82-.451a3.555,3.555,0,0,1-.662-.5,2.1,2.1,0,0,1-.442-.624A1.932,1.932,0,0,1,2.9,6.7a1.922,1.922,0,0,1,.252-1A2.161,2.161,0,0,1,3.815,5a3,3,0,0,1,.935-.41,4.279,4.279,0,0,1,1.069-.135,4.1,4.1,0,0,1,1.811.3V5.863a3.282,3.282,0,0,0-1.91-.516,3.142,3.142,0,0,0-.645.067,1.821,1.821,0,0,0-.574.22,1.272,1.272,0,0,0-.41.393,1.042,1.042,0,0,0-.158.586,1.206,1.206,0,0,0,.12.557,1.364,1.364,0,0,0,.354.428,3.531,3.531,0,0,0,.571.375q.337.182.776.4t.855.469a3.91,3.91,0,0,1,.709.545,2.422,2.422,0,0,1,.483.662,1.861,1.861,0,0,1,.179.832,2.11,2.11,0,0,1-.243,1.052,2,2,0,0,1-.656.7,2.866,2.866,0,0,1-.952.39,5.215,5.215,0,0,1-1.137.12,4.632,4.632,0,0,1-.492-.032q-.293-.032-.6-.094a4.877,4.877,0,0,1-.577-.152A1.8,1.8,0,0,1,2.89,12.66Zm11.461-2.42H10.114a2.244,2.244,0,0,0,.539,1.547,1.858,1.858,0,0,0,1.418.545,2.948,2.948,0,0,0,1.863-.668v.9a3.482,3.482,0,0,1-2.092.574,2.536,2.536,0,0,1-2-.817,3.346,3.346,0,0,1-.727-2.3,3.281,3.281,0,0,1,.794-2.282,2.546,2.546,0,0,1,1.972-.882,2.256,2.256,0,0,1,1.822.762,3.176,3.176,0,0,1,.645,2.115Zm-.984-.814a1.955,1.955,0,0,0-.4-1.295,1.368,1.368,0,0,0-1.1-.463,1.552,1.552,0,0,0-1.154.486,2.207,2.207,0,0,0-.586,1.271Zm5.221,3.516a1.853,1.853,0,0,1-.9.188q-1.576,0-1.576-1.758V7.82H15.083V7h1.031V5.535l.961-.311V7h1.512v.82H17.075V11.2a1.4,1.4,0,0,0,.205.861.818.818,0,0,0,.68.258,1.01,1.01,0,0,0,.627-.2Zm4.066,0a1.853,1.853,0,0,1-.9.188q-1.576,0-1.576-1.758V7.82H19.149V7h1.031V5.535l.961-.311V7h1.512v.82H21.142V11.2a1.4,1.4,0,0,0,.205.861.818.818,0,0,0,.68.258,1.01,1.01,0,0,0,.627-.2Zm1.775-7.465a.609.609,0,0,1-.439-.176.593.593,0,0,1-.182-.445.615.615,0,0,1,.621-.627.621.621,0,0,1,.448.179.626.626,0,0,1,0,.888A.615.615,0,0,1,24.429,5.477ZM24.9,13h-.961V7H24.9Zm6.926,0h-.961V9.578q0-1.91-1.395-1.91a1.513,1.513,0,0,0-1.192.542A2.009,2.009,0,0,0,27.8,9.578V13h-.961V7H27.8V8h.023A2.166,2.166,0,0,1,29.8,6.859,1.836,1.836,0,0,1,31.3,7.5a2.832,2.832,0,0,1,.521,1.837Zm6.932-.48q0,3.3-3.164,3.3a4.248,4.248,0,0,1-1.945-.422v-.961A4,4,0,0,0,35.579,15q2.215,0,2.215-2.355v-.656h-.023a2.428,2.428,0,0,1-3.864.349,3.2,3.2,0,0,1-.683-2.147,3.735,3.735,0,0,1,.735-2.432,2.457,2.457,0,0,1,2.013-.9,1.956,1.956,0,0,1,1.8.973h.023V7h.961Zm-.961-2.232V9.4a1.717,1.717,0,0,0-.483-1.225,1.591,1.591,0,0,0-1.2-.51,1.669,1.669,0,0,0-1.395.647,2.89,2.89,0,0,0-.5,1.813,2.481,2.481,0,0,0,.483,1.6,1.562,1.562,0,0,0,1.28.6,1.673,1.673,0,0,0,1.315-.574A2.14,2.14,0,0,0,37.794,10.287Zm2.543,2.5V11.752a2.844,2.844,0,0,0,1.729.58q1.266,0,1.266-.844a.732.732,0,0,0-.108-.407,1.08,1.08,0,0,0-.293-.3,2.255,2.255,0,0,0-.434-.231q-.249-.1-.536-.214a6.9,6.9,0,0,1-.7-.319,2.115,2.115,0,0,1-.5-.363,1.352,1.352,0,0,1-.3-.46,1.627,1.627,0,0,1-.1-.6,1.434,1.434,0,0,1,.193-.747,1.715,1.715,0,0,1,.516-.545,2.4,2.4,0,0,1,.735-.331,3.262,3.262,0,0,1,.853-.111,3.442,3.442,0,0,1,1.395.27V8.1a2.718,2.718,0,0,0-1.523-.434,1.781,1.781,0,0,0-.486.062,1.191,1.191,0,0,0-.372.173.8.8,0,0,0-.24.267.7.7,0,0,0-.085.343.822.822,0,0,0,.085.393.864.864,0,0,0,.249.281,1.9,1.9,0,0,0,.4.223q.234.1.533.217a7.421,7.421,0,0,1,.715.313,2.452,2.452,0,0,1,.539.363,1.42,1.42,0,0,1,.343.466,1.5,1.5,0,0,1,.12.627,1.478,1.478,0,0,1-.2.773,1.682,1.682,0,0,1-.524.545,2.4,2.4,0,0,1-.756.322,3.732,3.732,0,0,1-.9.105A3.4,3.4,0,0,1,40.337,12.783Z" transform="translate(4 27)"/>
    <g id="settings-24px_1_" data-name="settings-24px (1)" transform="translate(15 3)">
      <path id="Path_59" data-name="Path 59" d="M0,0H24V24H0Z" fill="none"/>
      <path id="Path_60" data-name="Path 60" d="M19.14,12.94A7.074,7.074,0,0,0,19.2,12a5.777,5.777,0,0,0-.07-.94l2.03-1.58a.491.491,0,0,0,.12-.61L19.36,5.55a.488.488,0,0,0-.59-.22l-2.39.96a7.064,7.064,0,0,0-1.62-.94L14.4,2.81a.484.484,0,0,0-.48-.41H10.08a.474.474,0,0,0-.47.41L9.25,5.35a7.22,7.22,0,0,0-1.62.94L5.24,5.33a.477.477,0,0,0-.59.22L2.74,8.87a.455.455,0,0,0,.12.61l2.03,1.58a5.563,5.563,0,0,0-.02,1.88L2.84,14.52a.491.491,0,0,0-.12.61l1.92,3.32a.488.488,0,0,0,.59.22l2.39-.96a7.064,7.064,0,0,0,1.62.94l.36,2.54a.492.492,0,0,0,.48.41h3.84a.466.466,0,0,0,.47-.41l.36-2.54a6.859,6.859,0,0,0,1.62-.94l2.39.96a.477.477,0,0,0,.59-.22l1.92-3.32a.463.463,0,0,0-.12-.61ZM12,15.6A3.6,3.6,0,1,1,15.6,12,3.611,3.611,0,0,1,12,15.6Z"/>
    </g>
  </g>
</svg>
